HIERARCHY
ROOT Hips
{
	OFFSET 0.00000 0.00000 0.00000
	CHANNELS 6 Xposition Yposition Zposition Zrotation Yrotation Xrotation 
	JOINT LHipJoint
	{
		OFFSET 0 0 0
		CHANNELS 3 Zrotation Yrotation Xrotation
		JOINT LeftHip
		{
			OFFSET 1.44361 -1.63093 0.70831
			CHANNELS 3 Zrotation Yrotation Xrotation
			JOINT LeftKnee
			{
				OFFSET 2.20103 -6.04728 0.00000
				CHANNELS 3 Zrotation Yrotation Xrotation
				JOINT LeftAnkle
				{
					OFFSET 2.54154 -6.98283 0.00000
					CHANNELS 3 Zrotation Yrotation Xrotation
					JOINT LeftToe
					{
						OFFSET 0.05971 -0.16406 1.77582
						CHANNELS 3 Zrotation Yrotation Xrotation
						End Site
						{
							OFFSET 0.00000 -0.00000 0.90832
						}
					}
				}
			}
		}
	}
	JOINT RHipJoint
	{
		OFFSET 0 0 0
		CHANNELS 3 Zrotation Yrotation Xrotation
		JOINT RightHip
		{
			OFFSET -1.65838 -1.63093 0.70830
			CHANNELS 3 Zrotation Yrotation Xrotation
			JOINT RightKnee
			{
				OFFSET -2.26926 -6.23475 0.00000
				CHANNELS 3 Zrotation Yrotation Xrotation
				JOINT RightAnkle
				{
					OFFSET -2.34808 -6.45129 0.00000
					CHANNELS 3 Zrotation Yrotation Xrotation
					JOINT RightToe
					{
						OFFSET -0.18633 -0.51195 1.68539
						CHANNELS 3 Zrotation Yrotation Xrotation
						End Site
						{
							OFFSET -0.00000 -0.00000 0.88927
						}
					}
				}
			}
		}
	}
	JOINT lowerback
	{
		OFFSET 0 0 0
		CHANNELS 3 Zrotation Yrotation Xrotation
		JOINT Chest
		{
			OFFSET -0.10393 2.01691 0.06920
			CHANNELS 3 Zrotation Yrotation Xrotation
			JOINT Chest2
			{
				OFFSET 0.04092 2.01302 -0.05283
				CHANNELS 3 Zrotation Yrotation Xrotation
				JOINT lowerneck
				{
					OFFSET 0 0 0
					CHANNELS 3 Zrotation Yrotation Xrotation
					JOINT Neck
					{
						OFFSET -0.02870 1.58978 -0.03113
						CHANNELS 3 Zrotation Yrotation Xrotation
						JOINT Head
						{
							OFFSET 0.11532 1.54326 -0.29195
							CHANNELS 3 Zrotation Yrotation Xrotation
							End Site
							{
								OFFSET 0.04056 1.59999 -0.09535
							}
						}
					}
				}
				JOINT LeftCollar
				{
					OFFSET 0 0 0
					CHANNELS 3 Zrotation Yrotation Xrotation
					JOINT LeftShoulder
					{
						OFFSET 3.30641 1.15764 0.01104
CHANNELS 3 Zrotation Xrotation Yrotation
						JOINT LeftElbow
						{
OFFSET 0 -4.632080 0.000000
CHANNELS 3 Zrotation Xrotation Yrotation
							JOINT LeftWrist
							{
OFFSET 0 -3.419240 -0.000000
CHANNELS 3 Zrotation Xrotation Yrotation
								JOINT lhand
								{
									OFFSET 0 0 0
CHANNELS 3 Zrotation Xrotation Yrotation
									JOINT LFingers
									{
OFFSET 0 -0.625370 -0.000000
CHANNELS 3 Zrotation Xrotation Yrotation
										End Site
										{
OFFSET 0 -0.504190 -0.000000
										}
									}
								}
								JOINT LThumb
								{
OFFSET 0 0.000000 0.000000
CHANNELS 3 Zrotation Xrotation Yrotation
									End Site
									{
OFFSET 0 -0.511890 0.511890
									}
								}
							}
						}
					}
				}
				JOINT RightCollar
				{
					OFFSET 0 0 0
					CHANNELS 3 Zrotation Yrotation Xrotation
					JOINT RightShoulder
					{
						OFFSET -3.78081 1.02180 -0.16609
CHANNELS 3 Zrotation Xrotation Yrotation
						JOINT RightElbow
						{
OFFSET 0 -4.406400 -0.000000
CHANNELS 3 Zrotation Xrotation Yrotation
							JOINT RightWrist
							{
OFFSET 0 -3.446750 0.000000
CHANNELS 3 Zrotation Xrotation Yrotation
								JOINT rhand
								{
									OFFSET 0 0 0
CHANNELS 3 Zrotation Xrotation Yrotation
									JOINT RFingers
									{
OFFSET 0 -0.513670 -0.000000
CHANNELS 3 Zrotation Xrotation Yrotation
										End Site
										{
OFFSET 0 -0.414140 -0.000000
										}
									}
								}
								JOINT RThumb
								{
OFFSET 0 0.000000 0.000000
CHANNELS 3 Zrotation Xrotation Yrotation
									End Site
									{
OFFSET 0 -0.420460 0.420460
									}
								}
							}
						}
					}
				}
			}
		}
	}
}
MOTION
Frames: 8
Frame Time: 0.008333333333333333
9.198300 16.641900 24.728300 179.356000 0.361500 -168.139000 0.000000 0.000000 0.000000 -20.959200 -10.687800 -5.977500 0.218600 3.009500 8.305300 0.688100 0.004700 -15.680500 9.102500 -16.873200 -56.444000 0.000000 0.000000 0.000000 19.012400 4.603000 -7.767200 -0.178600 -2.722400 7.506900 -0.364000 1.641200 -10.943300 -0.672800 5.245000 -14.608700 -6.833800 1.482800 -9.179700 1.171000 2.683500 0.112000 5.432900 1.158700 4.907400 -4.547300 -0.332100 -6.894700 7.422900 -4.492400 28.457600 2.781500 -2.701900 10.447500 0.000000 0.000000 0.000000 -0.347500 -1.053500 -22.570900 9.195600 -15.471500 1.251800 26.385500 21.491500 16.203800 0.000000 0.000000 0.000000 -7.125000 0.000000 0.000000 -0.909900 12.008800 -0.700800 0.000000 0.000000 0.000000 4.549500 5.643800 -8.130700 -13.597200 -22.155900 -2.674300 -25.539700 34.079800 37.186800 0.000000 0.000000 0.000000 7.125000 0.000000 -0.000000 12.799000 69.651600 -7.593000
9.194514 16.641467 24.725920 179.319760 0.345597 -168.130886 0.000000 0.000000 0.000000 -21.018861 -10.739618 -6.017635 0.222873 3.038655 8.386489 0.693779 -0.032298 -15.731669 9.106773 -16.875959 -56.458767 0.000000 0.000000 0.000000 18.946194 4.684081 -7.732636 -0.176599 -2.707147 7.464493 -0.371410 1.691125 -11.047532 -0.651056 5.160728 -14.367674 -6.832502 1.452077 -9.240768 1.162832 2.647746 0.120059 5.422352 1.138957 4.955865 -4.571911 -0.327232 -6.835201 7.422305 -4.482826 28.429906 2.786693 -2.702603 10.424998 0.000000 0.000000 0.000000 -0.383416 -1.027320 -23.108989 9.387187 -15.774838 1.303781 26.315291 20.692264 16.900103 0.000000 0.000000 0.000000 -7.125000 0.000000 0.000000 -1.022408 11.258786 -0.804707 0.000000 0.000000 0.000000 4.542793 5.538162 -8.125183 -13.588221 -22.142972 -2.670946 -24.984573 33.836124 37.130600 0.000000 0.000000 0.000000 7.125000 0.000000 0.000000 13.467608 69.421014 -7.922571
9.190826 16.641100 24.723622 179.285319 0.327969 -168.121219 0.000000 0.000000 0.000000 -21.075390 -10.791968 -6.061860 0.227416 3.069478 8.472333 0.699418 -0.072494 -15.781399 9.121157 -16.885057 -56.508250 0.000000 0.000000 0.000000 18.884077 4.757088 -7.703873 -0.174949 -2.694535 7.429424 -0.379352 1.744126 -11.158741 -0.640134 5.117856 -14.245173 -6.831605 1.421746 -9.300494 1.155458 2.612418 0.127015 5.412811 1.119525 5.002293 -4.591238 -0.321914 -6.782827 7.417906 -4.472320 28.406163 2.789685 -2.702456 10.405147 0.000000 0.000000 0.000000 -0.419454 -1.009935 -23.635633 9.571952 -16.067164 1.354101 26.248460 19.928015 17.542513 0.000000 0.000000 0.000000 -7.125000 0.000000 0.000000 -1.127733 10.567359 -0.902136 0.000000 0.000000 0.000000 4.536495 5.435003 -8.111461 -13.581009 -22.132589 -2.668255 -24.468588 33.609201 37.077509 0.000000 0.000000 0.000000 7.125000 0.000000 0.000000 14.087069 69.206035 -8.226800
9.187688 16.641100 24.721783 179.260978 0.300653 -168.102828 0.000000 0.000000 0.000000 -21.114335 -10.847303 -6.129040 0.233474 3.109667 8.584300 0.704827 -0.130641 -15.823048 9.192286 -16.929735 -56.752576 0.000000 0.000000 0.000000 18.844916 4.784782 -7.707659 -0.175274 -2.696753 7.435537 -0.390279 1.814389 -11.309112 -0.689951 5.307333 -14.787859 -6.832957 1.393619 -9.352691 1.152537 2.579477 0.127772 5.408917 1.101838 5.037289 -4.580906 -0.314071 -6.770440 7.392159 -4.456579 28.404594 2.780327 -2.697533 10.400171 0.000000 0.000000 0.000000 -0.456182 -1.041902 -24.098050 9.718428 -16.297697 1.395101 26.200591 19.360123 17.882470 0.000000 0.000000 0.000000 -7.125000 0.000000 0.000000 -1.192749 10.204739 -0.963203 0.000000 0.000000 0.000000 4.532492 5.345754 -8.051691 -13.583714 -22.136483 -2.669283 -24.172282 33.476302 37.041864 0.000000 0.000000 0.000000 7.125000 0.000000 0.000000 14.430704 69.078653 -8.388800
9.184715 16.640936 24.719682 179.254798 0.280782 -168.087055 0.000000 0.000000 0.000000 -21.128821 -10.879127 -6.197611 0.239467 3.149169 8.694369 0.710645 -0.232847 -15.854865 9.206496 -16.938519 -56.801179 0.000000 0.000000 0.000000 18.830476 4.810235 -7.711511 -0.175876 -2.701261 7.448046 -0.402825 1.905954 -11.478297 -0.750812 5.530285 -15.428464 -6.818816 1.375636 -9.407751 1.153069 2.558332 0.131114 5.401537 1.090105 5.075427 -4.568514 -0.311136 -6.760966 7.369783 -4.447465 28.398297 2.771068 -2.694558 10.394573 0.000000 0.000000 0.000000 -0.490504 -1.085240 -24.570807 9.858900 -16.518462 1.434662 26.153064 18.899866 18.040415 0.000000 0.000000 0.000000 -7.125000 0.000000 0.000000 -1.239507 10.040229 -1.004704 0.000000 0.000000 0.000000 4.532056 5.258337 -7.992985 -13.582884 -22.135273 -2.668969 -23.928314 33.367436 37.002275 0.000000 0.000000 0.000000 7.125000 0.000000 0.000000 14.701436 68.964048 -8.511485
9.182118 16.640395 24.716977 179.290497 0.278077 -168.077319 0.000000 0.000000 0.000000 -21.086901 -10.856733 -6.269388 0.245309 3.187086 8.800061 0.717406 -0.436658 -15.864006 9.089445 -16.864523 -56.398424 0.000000 0.000000 0.000000 18.873045 4.830519 -7.715513 -0.177120 -2.711052 7.475307 -0.419106 2.046642 -11.690871 -0.837139 5.830431 -16.294880 -6.768944 1.381045 -9.469414 1.161561 2.564390 0.140418 5.386122 1.092107 5.120808 -4.551367 -0.319520 -6.758207 7.355178 -4.453631 28.381097 2.762035 -2.696073 10.387541 0.000000 0.000000 0.000000 -0.519280 -1.154800 -25.067408 9.985525 -16.716702 1.470902 26.106331 18.687833 17.778618 0.000000 0.000000 0.000000 -7.125000 0.000000 0.000000 -1.244159 10.332586 -1.001080 0.000000 0.000000 0.000000 4.539845 5.175147 -7.936731 -13.573905 -22.122292 -2.665562 -23.805043 33.313995 36.953594 0.000000 0.000000 0.000000 7.125000 0.000000 0.000000 14.804045 68.878911 -8.543507
9.179743 16.639486 24.714445 179.337977 0.287717 -168.072000 0.000000 0.000000 0.000000 -21.022280 -10.743858 -6.294685 0.243984 3.178253 8.775441 0.716977 -0.723860 -15.772260 8.858867 -16.712243 -55.595038 0.000000 0.000000 0.000000 18.929651 4.861110 -7.714559 -0.178291 -2.719983 7.500115 -0.443485 2.195822 -12.008358 -0.897920 6.038647 -16.896770 -6.706459 1.394258 -9.522291 1.170053 2.578743 0.145574 5.364129 1.099114 5.156202 -4.495053 -0.302111 -6.840753 7.324917 -4.426962 28.422819 2.744167 -2.677930 10.415996 0.000000 0.000000 0.000000 -0.550338 -1.228262 -25.492351 10.093769 -16.885984 1.502112 26.094641 18.564245 17.523448 0.000000 0.000000 0.000000 -7.125000 0.000000 0.000000 -1.226797 10.612354 -0.980277 0.000000 0.000000 0.000000 4.551732 5.105355 -7.907153 -13.560116 -22.102365 -2.660362 -23.618456 33.166955 36.681665 0.000000 0.000000 0.000000 7.125000 0.000000 0.000000 14.742107 68.561100 -8.403963
9.177633 16.638134 24.712119 179.399639 0.312220 -168.072000 0.000000 0.000000 0.000000 -20.930327 -10.522034 -6.264016 0.234032 3.113128 8.593914 0.707890 -1.111470 -15.559036 8.491595 -16.465700 -54.309261 0.000000 0.000000 0.000000 19.003160 4.904112 -7.707635 -0.179373 -2.727880 7.521967 -0.477616 2.355226 -12.452168 -0.927940 6.136172 -17.180148 -6.628786 1.416868 -9.564589 1.178545 2.603084 0.145736 5.334217 1.112150 5.179569 -4.391579 -0.253647 -7.026011 7.275803 -4.360756 28.535488 2.715661 -2.636118 10.487178 0.000000 0.000000 0.000000 -0.584144 -1.306422 -25.831009 10.179881 -17.020398 1.527263 26.125148 18.547153 17.276256 0.000000 0.000000 0.000000 -7.125000 0.000000 0.000000 -1.182930 10.876963 -0.938790 0.000000 0.000000 0.000000 4.568554 5.051698 -7.909696 -13.540536 -22.074076 -2.653006 -23.355632 32.907214 36.140925 0.000000 0.000000 0.000000 7.125000 0.000000 0.000000 14.482042 67.963134 -8.057840
